#VRML V2.0 utf8
# Drawing-derived RP2350B maximum-height mechanical preview; not manufacturer STEP.
Transform { scale 0.3937007874 0.3937007874 0.3937007874 children [
Transform { translation 0 0 0.475 children [ Shape { appearance Appearance { material Material { diffuseColor 0.10 0.10 0.10 } } geometry Box { size 10 10 0.85 } } ] }
Transform { translation 0 0 0.025 children [ Shape { appearance Appearance { material Material { diffuseColor 0.75 0.75 0.75 } } geometry Box { size 3.4 3.4 0.05 } } ] }
Transform { translation -4.1 4.1 0.898 rotation 1 0 0 1.570796327 children [ Shape { appearance Appearance { material Material { diffuseColor 0.75 0.75 0.75 } } geometry Cylinder { radius 0.15 height 0.004 } } ] }
Transform { translation -4.8 -3.8000000000000003 0.025 children [ Shape { appearance Appearance { material Material { diffuseColor 0.75 0.75 0.75 } } geometry Box { size 0.4 0.2 0.05 } } ] }
Transform { translation 4.8 -3.8000000000000003 0.025 children [ Shape { appearance Appearance { material Material { diffuseColor 0.75 0.75 0.75 } } geometry Box { size 0.4 0.2 0.05 } } ] }
Transform { translation -3.8000000000000003 -4.8 0.025 children [ Shape { appearance Appearance { material Material { diffuseColor 0.75 0.75 0.75 } } geometry Box { size 0.2 0.4 0.05 } } ] }
Transform { translation -3.8000000000000003 4.8 0.025 children [ Shape { appearance Appearance { material Material { diffuseColor 0.75 0.75 0.75 } } geometry Box { size 0.2 0.4 0.05 } } ] }
Transform { translation -4.8 -3.4000000000000004 0.025 children [ Shape { appearance Appearance { material Material { diffuseColor 0.75 0.75 0.75 } } geometry Box { size 0.4 0.2 0.05 } } ] }
Transform { translation 4.8 -3.4000000000000004 0.025 children [ Shape { appearance Appearance { material Material { diffuseColor 0.75 0.75 0.75 } } geometry Box { size 0.4 0.2 0.05 } } ] }
Transform { translation -3.4000000000000004 -4.8 0.025 children [ Shape { appearance Appearance { material Material { diffuseColor 0.75 0.75 0.75 } } geometry Box { size 0.2 0.4 0.05 } } ] }
Transform { translation -3.4000000000000004 4.8 0.025 children [ Shape { appearance Appearance { material Material { diffuseColor 0.75 0.75 0.75 } } geometry Box { size 0.2 0.4 0.05 } } ] }
Transform { translation -4.8 -3.0 0.025 children [ Shape { appearance Appearance { material Material { diffuseColor 0.75 0.75 0.75 } } geometry Box { size 0.4 0.2 0.05 } } ] }
Transform { translation 4.8 -3.0 0.025 children [ Shape { appearance Appearance { material Material { diffuseColor 0.75 0.75 0.75 } } geometry Box { size 0.4 0.2 0.05 } } ] }
Transform { translation -3.0 -4.8 0.025 children [ Shape { appearance Appearance { material Material { diffuseColor 0.75 0.75 0.75 } } geometry Box { size 0.2 0.4 0.05 } } ] }
Transform { translation -3.0 4.8 0.025 children [ Shape { appearance Appearance { material Material { diffuseColor 0.75 0.75 0.75 } } geometry Box { size 0.2 0.4 0.05 } } ] }
Transform { translation -4.8 -2.6 0.025 children [ Shape { appearance Appearance { material Material { diffuseColor 0.75 0.75 0.75 } } geometry Box { size 0.4 0.2 0.05 } } ] }
Transform { translation 4.8 -2.6 0.025 children [ Shape { appearance Appearance { material Material { diffuseColor 0.75 0.75 0.75 } } geometry Box { size 0.4 0.2 0.05 } } ] }
Transform { translation -2.6 -4.8 0.025 children [ Shape { appearance Appearance { material Material { diffuseColor 0.75 0.75 0.75 } } geometry Box { size 0.2 0.4 0.05 } } ] }
Transform { translation -2.6 4.8 0.025 children [ Shape { appearance Appearance { material Material { diffuseColor 0.75 0.75 0.75 } } geometry Box { size 0.2 0.4 0.05 } } ] }
Transform { translation -4.8 -2.2 0.025 children [ Shape { appearance Appearance { material Material { diffuseColor 0.75 0.75 0.75 } } geometry Box { size 0.4 0.2 0.05 } } ] }
Transform { translation 4.8 -2.2 0.025 children [ Shape { appearance Appearance { material Material { diffuseColor 0.75 0.75 0.75 } } geometry Box { size 0.4 0.2 0.05 } } ] }
Transform { translation -2.2 -4.8 0.025 children [ Shape { appearance Appearance { material Material { diffuseColor 0.75 0.75 0.75 } } geometry Box { size 0.2 0.4 0.05 } } ] }
Transform { translation -2.2 4.8 0.025 children [ Shape { appearance Appearance { material Material { diffuseColor 0.75 0.75 0.75 } } geometry Box { size 0.2 0.4 0.05 } } ] }
Transform { translation -4.8 -1.8 0.025 children [ Shape { appearance Appearance { material Material { diffuseColor 0.75 0.75 0.75 } } geometry Box { size 0.4 0.2 0.05 } } ] }
Transform { translation 4.8 -1.8 0.025 children [ Shape { appearance Appearance { material Material { diffuseColor 0.75 0.75 0.75 } } geometry Box { size 0.4 0.2 0.05 } } ] }
Transform { translation -1.8 -4.8 0.025 children [ Shape { appearance Appearance { material Material { diffuseColor 0.75 0.75 0.75 } } geometry Box { size 0.2 0.4 0.05 } } ] }
Transform { translation -1.8 4.8 0.025 children [ Shape { appearance Appearance { material Material { diffuseColor 0.75 0.75 0.75 } } geometry Box { size 0.2 0.4 0.05 } } ] }
Transform { translation -4.8 -1.4000000000000001 0.025 children [ Shape { appearance Appearance { material Material { diffuseColor 0.75 0.75 0.75 } } geometry Box { size 0.4 0.2 0.05 } } ] }
Transform { translation 4.8 -1.4000000000000001 0.025 children [ Shape { appearance Appearance { material Material { diffuseColor 0.75 0.75 0.75 } } geometry Box { size 0.4 0.2 0.05 } } ] }
Transform { translation -1.4000000000000001 -4.8 0.025 children [ Shape { appearance Appearance { material Material { diffuseColor 0.75 0.75 0.75 } } geometry Box { size 0.2 0.4 0.05 } } ] }
Transform { translation -1.4000000000000001 4.8 0.025 children [ Shape { appearance Appearance { material Material { diffuseColor 0.75 0.75 0.75 } } geometry Box { size 0.2 0.4 0.05 } } ] }
Transform { translation -4.8 -1.0 0.025 children [ Shape { appearance Appearance { material Material { diffuseColor 0.75 0.75 0.75 } } geometry Box { size 0.4 0.2 0.05 } } ] }
Transform { translation 4.8 -1.0 0.025 children [ Shape { appearance Appearance { material Material { diffuseColor 0.75 0.75 0.75 } } geometry Box { size 0.4 0.2 0.05 } } ] }
Transform { translation -1.0 -4.8 0.025 children [ Shape { appearance Appearance { material Material { diffuseColor 0.75 0.75 0.75 } } geometry Box { size 0.2 0.4 0.05 } } ] }
Transform { translation -1.0 4.8 0.025 children [ Shape { appearance Appearance { material Material { diffuseColor 0.75 0.75 0.75 } } geometry Box { size 0.2 0.4 0.05 } } ] }
Transform { translation -4.8 -0.6000000000000001 0.025 children [ Shape { appearance Appearance { material Material { diffuseColor 0.75 0.75 0.75 } } geometry Box { size 0.4 0.2 0.05 } } ] }
Transform { translation 4.8 -0.6000000000000001 0.025 children [ Shape { appearance Appearance { material Material { diffuseColor 0.75 0.75 0.75 } } geometry Box { size 0.4 0.2 0.05 } } ] }
Transform { translation -0.6000000000000001 -4.8 0.025 children [ Shape { appearance Appearance { material Material { diffuseColor 0.75 0.75 0.75 } } geometry Box { size 0.2 0.4 0.05 } } ] }
Transform { translation -0.6000000000000001 4.8 0.025 children [ Shape { appearance Appearance { material Material { diffuseColor 0.75 0.75 0.75 } } geometry Box { size 0.2 0.4 0.05 } } ] }
Transform { translation -4.8 -0.2 0.025 children [ Shape { appearance Appearance { material Material { diffuseColor 0.75 0.75 0.75 } } geometry Box { size 0.4 0.2 0.05 } } ] }
Transform { translation 4.8 -0.2 0.025 children [ Shape { appearance Appearance { material Material { diffuseColor 0.75 0.75 0.75 } } geometry Box { size 0.4 0.2 0.05 } } ] }
Transform { translation -0.2 -4.8 0.025 children [ Shape { appearance Appearance { material Material { diffuseColor 0.75 0.75 0.75 } } geometry Box { size 0.2 0.4 0.05 } } ] }
Transform { translation -0.2 4.8 0.025 children [ Shape { appearance Appearance { material Material { diffuseColor 0.75 0.75 0.75 } } geometry Box { size 0.2 0.4 0.05 } } ] }
Transform { translation -4.8 0.2 0.025 children [ Shape { appearance Appearance { material Material { diffuseColor 0.75 0.75 0.75 } } geometry Box { size 0.4 0.2 0.05 } } ] }
Transform { translation 4.8 0.2 0.025 children [ Shape { appearance Appearance { material Material { diffuseColor 0.75 0.75 0.75 } } geometry Box { size 0.4 0.2 0.05 } } ] }
Transform { translation 0.2 -4.8 0.025 children [ Shape { appearance Appearance { material Material { diffuseColor 0.75 0.75 0.75 } } geometry Box { size 0.2 0.4 0.05 } } ] }
Transform { translation 0.2 4.8 0.025 children [ Shape { appearance Appearance { material Material { diffuseColor 0.75 0.75 0.75 } } geometry Box { size 0.2 0.4 0.05 } } ] }
Transform { translation -4.8 0.6000000000000001 0.025 children [ Shape { appearance Appearance { material Material { diffuseColor 0.75 0.75 0.75 } } geometry Box { size 0.4 0.2 0.05 } } ] }
Transform { translation 4.8 0.6000000000000001 0.025 children [ Shape { appearance Appearance { material Material { diffuseColor 0.75 0.75 0.75 } } geometry Box { size 0.4 0.2 0.05 } } ] }
Transform { translation 0.6000000000000001 -4.8 0.025 children [ Shape { appearance Appearance { material Material { diffuseColor 0.75 0.75 0.75 } } geometry Box { size 0.2 0.4 0.05 } } ] }
Transform { translation 0.6000000000000001 4.8 0.025 children [ Shape { appearance Appearance { material Material { diffuseColor 0.75 0.75 0.75 } } geometry Box { size 0.2 0.4 0.05 } } ] }
Transform { translation -4.8 1.0 0.025 children [ Shape { appearance Appearance { material Material { diffuseColor 0.75 0.75 0.75 } } geometry Box { size 0.4 0.2 0.05 } } ] }
Transform { translation 4.8 1.0 0.025 children [ Shape { appearance Appearance { material Material { diffuseColor 0.75 0.75 0.75 } } geometry Box { size 0.4 0.2 0.05 } } ] }
Transform { translation 1.0 -4.8 0.025 children [ Shape { appearance Appearance { material Material { diffuseColor 0.75 0.75 0.75 } } geometry Box { size 0.2 0.4 0.05 } } ] }
Transform { translation 1.0 4.8 0.025 children [ Shape { appearance Appearance { material Material { diffuseColor 0.75 0.75 0.75 } } geometry Box { size 0.2 0.4 0.05 } } ] }
Transform { translation -4.8 1.4000000000000001 0.025 children [ Shape { appearance Appearance { material Material { diffuseColor 0.75 0.75 0.75 } } geometry Box { size 0.4 0.2 0.05 } } ] }
Transform { translation 4.8 1.4000000000000001 0.025 children [ Shape { appearance Appearance { material Material { diffuseColor 0.75 0.75 0.75 } } geometry Box { size 0.4 0.2 0.05 } } ] }
Transform { translation 1.4000000000000001 -4.8 0.025 children [ Shape { appearance Appearance { material Material { diffuseColor 0.75 0.75 0.75 } } geometry Box { size 0.2 0.4 0.05 } } ] }
Transform { translation 1.4000000000000001 4.8 0.025 children [ Shape { appearance Appearance { material Material { diffuseColor 0.75 0.75 0.75 } } geometry Box { size 0.2 0.4 0.05 } } ] }
Transform { translation -4.8 1.8 0.025 children [ Shape { appearance Appearance { material Material { diffuseColor 0.75 0.75 0.75 } } geometry Box { size 0.4 0.2 0.05 } } ] }
Transform { translation 4.8 1.8 0.025 children [ Shape { appearance Appearance { material Material { diffuseColor 0.75 0.75 0.75 } } geometry Box { size 0.4 0.2 0.05 } } ] }
Transform { translation 1.8 -4.8 0.025 children [ Shape { appearance Appearance { material Material { diffuseColor 0.75 0.75 0.75 } } geometry Box { size 0.2 0.4 0.05 } } ] }
Transform { translation 1.8 4.8 0.025 children [ Shape { appearance Appearance { material Material { diffuseColor 0.75 0.75 0.75 } } geometry Box { size 0.2 0.4 0.05 } } ] }
Transform { translation -4.8 2.2 0.025 children [ Shape { appearance Appearance { material Material { diffuseColor 0.75 0.75 0.75 } } geometry Box { size 0.4 0.2 0.05 } } ] }
Transform { translation 4.8 2.2 0.025 children [ Shape { appearance Appearance { material Material { diffuseColor 0.75 0.75 0.75 } } geometry Box { size 0.4 0.2 0.05 } } ] }
Transform { translation 2.2 -4.8 0.025 children [ Shape { appearance Appearance { material Material { diffuseColor 0.75 0.75 0.75 } } geometry Box { size 0.2 0.4 0.05 } } ] }
Transform { translation 2.2 4.8 0.025 children [ Shape { appearance Appearance { material Material { diffuseColor 0.75 0.75 0.75 } } geometry Box { size 0.2 0.4 0.05 } } ] }
Transform { translation -4.8 2.6 0.025 children [ Shape { appearance Appearance { material Material { diffuseColor 0.75 0.75 0.75 } } geometry Box { size 0.4 0.2 0.05 } } ] }
Transform { translation 4.8 2.6 0.025 children [ Shape { appearance Appearance { material Material { diffuseColor 0.75 0.75 0.75 } } geometry Box { size 0.4 0.2 0.05 } } ] }
Transform { translation 2.6 -4.8 0.025 children [ Shape { appearance Appearance { material Material { diffuseColor 0.75 0.75 0.75 } } geometry Box { size 0.2 0.4 0.05 } } ] }
Transform { translation 2.6 4.8 0.025 children [ Shape { appearance Appearance { material Material { diffuseColor 0.75 0.75 0.75 } } geometry Box { size 0.2 0.4 0.05 } } ] }
Transform { translation -4.8 3.0 0.025 children [ Shape { appearance Appearance { material Material { diffuseColor 0.75 0.75 0.75 } } geometry Box { size 0.4 0.2 0.05 } } ] }
Transform { translation 4.8 3.0 0.025 children [ Shape { appearance Appearance { material Material { diffuseColor 0.75 0.75 0.75 } } geometry Box { size 0.4 0.2 0.05 } } ] }
Transform { translation 3.0 -4.8 0.025 children [ Shape { appearance Appearance { material Material { diffuseColor 0.75 0.75 0.75 } } geometry Box { size 0.2 0.4 0.05 } } ] }
Transform { translation 3.0 4.8 0.025 children [ Shape { appearance Appearance { material Material { diffuseColor 0.75 0.75 0.75 } } geometry Box { size 0.2 0.4 0.05 } } ] }
Transform { translation -4.8 3.4000000000000004 0.025 children [ Shape { appearance Appearance { material Material { diffuseColor 0.75 0.75 0.75 } } geometry Box { size 0.4 0.2 0.05 } } ] }
Transform { translation 4.8 3.4000000000000004 0.025 children [ Shape { appearance Appearance { material Material { diffuseColor 0.75 0.75 0.75 } } geometry Box { size 0.4 0.2 0.05 } } ] }
Transform { translation 3.4000000000000004 -4.8 0.025 children [ Shape { appearance Appearance { material Material { diffuseColor 0.75 0.75 0.75 } } geometry Box { size 0.2 0.4 0.05 } } ] }
Transform { translation 3.4000000000000004 4.8 0.025 children [ Shape { appearance Appearance { material Material { diffuseColor 0.75 0.75 0.75 } } geometry Box { size 0.2 0.4 0.05 } } ] }
Transform { translation -4.8 3.8000000000000003 0.025 children [ Shape { appearance Appearance { material Material { diffuseColor 0.75 0.75 0.75 } } geometry Box { size 0.4 0.2 0.05 } } ] }
Transform { translation 4.8 3.8000000000000003 0.025 children [ Shape { appearance Appearance { material Material { diffuseColor 0.75 0.75 0.75 } } geometry Box { size 0.4 0.2 0.05 } } ] }
Transform { translation 3.8000000000000003 -4.8 0.025 children [ Shape { appearance Appearance { material Material { diffuseColor 0.75 0.75 0.75 } } geometry Box { size 0.2 0.4 0.05 } } ] }
Transform { translation 3.8000000000000003 4.8 0.025 children [ Shape { appearance Appearance { material Material { diffuseColor 0.75 0.75 0.75 } } geometry Box { size 0.2 0.4 0.05 } } ] }
] }
