#VRML V2.0 utf8
# Abracon Rev A body maximum2.2x1.8x1.0mm; winding/polarity preview, no manufacturerSTEP.
Transform { scale 0.3937007874 0.3937007874 0.3937007874 children [ Transform { translation 0 0 0.5 children [ Shape { appearance Appearance { material Material { diffuseColor 0.22 0.22 0.24 } } geometry Box { size 2.2 1.8 1.0 } } ] } Transform { translation -0.6 -0.4 0.998 rotation 1 0 0 1.570796327 children [ Shape { appearance Appearance { material Material { diffuseColor 0.9 0.9 0.9 } } geometry Cylinder { radius 0.12 height 0.004 } } ] } ] }
