#VRML V2.0 utf8
# Drawing-derived MAXIMUM CLEARANCE ENVELOPE, not manufacturer model.
# DRB0008J; 4225036/A, June 2019; body [3.1, 3.1, 1] mm.
# No terminal, seating-gap, molding, thermal, electrical or radiation model.
# KiCad unit is 2.54 mm. Origin at package center on PCB top surface.
Transform { translation 0 0 0.19685039370078738 children [
 Shape { appearance Appearance { material Material { diffuseColor .16 .17 .19 } }
 geometry Box { size 1.220472440944882 1.220472440944882 0.39370078740157477 } }
] }
