#VRML V2.0 utf8
# Authored from manufacturer package dimensions for Yapogee.
# Mechanical preview only. Nominal XY, maximum package Z; not a vendor solid model.
# Units: 0.1 inch. No logo or proprietary CAD geometry. See manifest.json.
Transform { translation 0 0 0.206693 children [ Shape { appearance Appearance { material Material { diffuseColor 0.12 0.12 0.12 } } geometry Box { size 0.984252 0.787402 0.374016 } } ] }
Transform { translation -0.339567 -0.260827 0.009843 children [ Shape { appearance Appearance { material Material { diffuseColor 0.65 0.66 0.68 } } geometry Box { size 0.305118 0.265748 0.019685 } } ] }
Transform { translation 0.339567 -0.260827 0.009843 children [ Shape { appearance Appearance { material Material { diffuseColor 0.65 0.66 0.68 } } geometry Box { size 0.305118 0.265748 0.019685 } } ] }
Transform { translation 0.339567 0.260827 0.009843 children [ Shape { appearance Appearance { material Material { diffuseColor 0.65 0.66 0.68 } } geometry Box { size 0.305118 0.265748 0.019685 } } ] }
Transform { translation -0.339567 0.260827 0.009843 children [ Shape { appearance Appearance { material Material { diffuseColor 0.65 0.66 0.68 } } geometry Box { size 0.305118 0.265748 0.019685 } } ] }
Transform { translation -0.374016 -0.307087 0.394882 children [ Shape { appearance Appearance { material Material { diffuseColor 0.75 0.75 0.75 } } geometry Box { size 0.055118 0.055118 0.002362 } } ] }
