#VRML V2.0 utf8
# Authored from manufacturer package dimensions for Yapogee.
# Mechanical preview only. Nominal XY, maximum package Z; not a vendor solid model.
# Units: 0.1 inch. No logo or proprietary CAD geometry. See manifest.json.
Transform { translation 0 0 0.108268 children [ Shape { appearance Appearance { material Material { diffuseColor 0.12 0.12 0.12 } } geometry Box { size 0.590551 0.590551 0.177165 } } ] }
Transform { translation -0.255906 0.19685 0.009843 children [ Shape { appearance Appearance { material Material { diffuseColor 0.65 0.66 0.68 } } geometry Box { size 0.07874 0.07874 0.019685 } } ] }
Transform { translation -0.255906 0 0.009843 children [ Shape { appearance Appearance { material Material { diffuseColor 0.65 0.66 0.68 } } geometry Box { size 0.07874 0.07874 0.019685 } } ] }
Transform { translation -0.255906 -0.19685 0.009843 children [ Shape { appearance Appearance { material Material { diffuseColor 0.65 0.66 0.68 } } geometry Box { size 0.07874 0.07874 0.019685 } } ] }
Transform { translation 0.255906 -0.19685 0.009843 children [ Shape { appearance Appearance { material Material { diffuseColor 0.65 0.66 0.68 } } geometry Box { size 0.07874 0.07874 0.019685 } } ] }
Transform { translation 0.255906 0 0.009843 children [ Shape { appearance Appearance { material Material { diffuseColor 0.65 0.66 0.68 } } geometry Box { size 0.07874 0.07874 0.019685 } } ] }
Transform { translation 0.255906 0.19685 0.009843 children [ Shape { appearance Appearance { material Material { diffuseColor 0.65 0.66 0.68 } } geometry Box { size 0.07874 0.07874 0.019685 } } ] }
Transform { translation 0 0 0.009843 children [ Shape { appearance Appearance { material Material { diffuseColor 0.65 0.66 0.68 } } geometry Box { size 0.23622 0.433071 0.019685 } } ] }
Transform { translation -0.177165 0.15748 0.198031 children [ Shape { appearance Appearance { material Material { diffuseColor 0.75 0.75 0.75 } } geometry Box { size 0.055118 0.055118 0.002362 } } ] }
