#VRML V2.0 utf8
# Drawing-derived MAXIMUM CLEARANCE ENVELOPE, not manufacturer model.
# RTJ0020J; 4223320/A, November 2016; body [4.1, 4.1, 0.8] mm.
# No terminal, seating-gap, molding, thermal, electrical or radiation model.
# KiCad unit is 2.54 mm. Origin at package center on PCB top surface.
Transform { translation 0 0 0.15748031496062992 children [
 Shape { appearance Appearance { material Material { diffuseColor .16 .17 .19 } }
 geometry Box { size 1.6141732283464565 1.6141732283464565 0.31496062992125984 } }
] }
